<svg xmlns="http://www.w3.org/2000/svg" width="96" height="96" viewBox="0 0 96 96"><defs>
 <linearGradient id="steel" x1="0" y1="0" x2="1" y2="1"><stop stop-color="#f2e9d6"/><stop offset=".38" stop-color="#b5b8b0"/><stop offset=".72" stop-color="#687178"/><stop offset="1" stop-color="#343a3b"/></linearGradient>
 <linearGradient id="brass" x1="0" y1="0" x2="1" y2="1"><stop stop-color="#fff0a5"/><stop offset=".38" stop-color="#d3a64e"/><stop offset=".72" stop-color="#89602b"/><stop offset="1" stop-color="#493522"/></linearGradient>
 <linearGradient id="wood" x1="0" y1="0" x2="1" y2="1"><stop stop-color="#a96b34"/><stop offset=".45" stop-color="#714326"/><stop offset="1" stop-color="#39271d"/></linearGradient>
 <linearGradient id="leather" x1="0" y1="0" x2="1" y2="1"><stop stop-color="#c29256"/><stop offset=".5" stop-color="#805532"/><stop offset="1" stop-color="#493326"/></linearGradient>
 <linearGradient id="blue" x1="0" y1="0" x2="1" y2="1"><stop stop-color="#e0fbff"/><stop offset=".35" stop-color="#49c5e6"/><stop offset=".72" stop-color="#235eaf"/><stop offset="1" stop-color="#18284a"/></linearGradient>
 <linearGradient id="green" x1="0" y1="0" x2="1" y2="1"><stop stop-color="#d9e9a5"/><stop offset=".45" stop-color="#73934c"/><stop offset="1" stop-color="#31422d"/></linearGradient>
 <linearGradient id="red" x1="0" y1="0" x2="1" y2="1"><stop stop-color="#ffe1c9"/><stop offset=".35" stop-color="#ed6471"/><stop offset="1" stop-color="#88213f"/></linearGradient>
 <linearGradient id="violet" x1="0" y1="0" x2="1" y2="1"><stop stop-color="#e4b4ff"/><stop offset=".5" stop-color="#9258c4"/><stop offset="1" stop-color="#382d70"/></linearGradient>
 <radialGradient id="shine"><stop stop-color="#fffde4" stop-opacity=".85"/><stop offset="1" stop-color="#fffde4" stop-opacity="0"/></radialGradient>
 </defs><g stroke="#2a231e" stroke-width="4" stroke-linejoin="round" stroke-linecap="round"><path d="M42 84 52 18 Q54 12 60 17 L50 86Z" fill="url(#wood)"/><path d="m46 68 6-40" stroke="#d5a16a" stroke-width="2"/><path d="M47 21 41 13 47 5 57 4 65 13 57 23Z" fill="url(#blue)"/><path d="m40 14-8 7 8 3m19-12 9 7-9 4" fill="none" stroke="url(#brass)" stroke-width="4"/><path d="m49 9 6-4 5 8-7 7Z" fill="#d9ffff" stroke="none"/></g></svg>